<svg width="24" height="24" viewBox="0 0 24 24" fill="none" xmlns="http://www.w3.org/2000/svg">
<path d="M17.8891 5.06521C18.8088 5.06521 19.5538 4.32513 19.5538 3.40373V1.66478C19.5538 0.742557 18.8096 0 17.8891 0C16.9685 0 16.2251 0.741733 16.2251 1.66478V3.40455C16.2259 4.32513 16.9693 5.06521 17.8891 5.06521Z" fill="#F6F6F6"/>
<path d="M23.803 2.87953H20.452V3.72592C20.452 5.12285 19.3172 6.261 17.9178 6.261C16.5167 6.261 15.3843 5.12285 15.3843 3.72592V2.87953H8.6222V3.72592C8.6222 5.12285 7.4857 6.261 6.08712 6.261C4.68854 6.261 3.55286 5.12368 3.55286 3.72592V2.87953L0.171387 2.83749V24H1.86254H22.1399L23.8285 23.995L23.803 2.87953ZM22.1382 22.3146H1.86254V8.79526H22.1399V22.3146H22.1382Z" fill="#F6F6F6"/>
<path d="M6.06059 5.06521C6.98034 5.06521 7.72619 4.32513 7.72619 3.40373V1.66478C7.72619 0.741733 6.98034 0 6.06059 0C5.14084 0 4.39746 0.741733 4.39746 1.66478V3.40455C4.39746 4.32513 5.14002 5.06521 6.06059 5.06521Z" fill="#F6F6F6"/>
<path d="M11.2898 10.6092H8.62695V12.9597H11.2898V10.6092Z" fill="#F6F6F6"/>
<path d="M15.5979 10.6092H12.9326V12.9597H15.5979V10.6092Z" fill="#F6F6F6"/>
<path d="M19.5881 10.6092H16.9253V12.9597H19.5881V10.6092Z" fill="#F6F6F6"/>
<path d="M11.2898 14.5125H8.62695V16.8613H11.2898V14.5125Z" fill="#F6F6F6"/>
<path d="M15.5979 14.5125H12.9326V16.8613H15.5979V14.5125Z" fill="#F6F6F6"/>
<path d="M19.5881 14.5125H16.9253V16.8613H19.5881V14.5125Z" fill="#F6F6F6"/>
<path d="M11.2898 18.4931H8.62695V20.8419H11.2898V18.4931Z" fill="#F6F6F6"/>
<path d="M7.05863 14.5125H4.39746V16.8613H7.05863V14.5125Z" fill="#F6F6F6"/>
<path d="M7.05863 18.4931H4.39746V20.8419H7.05863V18.4931Z" fill="#F6F6F6"/>
<path d="M15.5979 18.4931H12.9326V20.8419H15.5979V18.4931Z" fill="#F6F6F6"/>
<path d="M19.5881 18.4931H16.9253V20.8419H19.5881V18.4931Z" fill="#F6F6F6"/>
</svg>
