<svg width="24" height="22" viewBox="0 0 24 22" fill="none" xmlns="http://www.w3.org/2000/svg">
<path d="M11.5933 19.7937C11.5933 20.8944 10.7009 21.7868 9.60015 21.7868C8.49936 21.7868 7.60701 20.8944 7.60701 19.7937C7.60701 18.6929 8.49937 17.8005 9.60016 17.8005C10.701 17.8005 11.5933 18.6929 11.5933 19.7937ZM17.6705 17.8005C16.5697 17.8005 15.6774 18.6929 15.6774 19.7937C15.6774 20.8945 16.5697 21.7868 17.6705 21.7868C18.7713 21.7868 19.6637 20.8945 19.6637 19.7937C19.6637 18.6929 18.7713 17.8005 17.6705 17.8005ZM23.8574 8.44387L21.4049 15.7333C21.4049 15.7333 21.2019 16.8151 20.1675 16.8151C19.1331 16.8151 9.01776 16.8151 7.78335 16.8151C6.54894 16.8151 6.49706 15.4591 6.49706 15.4591C6.49706 15.4591 5.18116 5.69646 5.11595 5.10666C5.05074 4.51686 4.29647 4.07971 4.29647 4.07971L1.05112 2.56374C-0.725668 1.6346 0.0819594 -0.133299 1.05112 0.272742C5.16633 2.21401 7.07797 3.16984 7.20097 3.93449C7.32545 4.70062 7.5418 6.54558 7.5418 6.54558V6.55743C7.567 6.55002 7.58478 6.54558 7.58478 6.54558C7.58478 6.54558 20.2046 6.54558 22.7534 6.54558C24.585 6.54558 23.8574 8.44684 23.8574 8.44387ZM20.3098 12.5028L20.2846 12.5042H8.2783L8.52578 14.4663H19.7259L20.3098 12.5028ZM21.479 8.54613H7.78187L8.04565 10.643C10.673 10.643 18.367 10.643 20.8596 10.643L21.479 8.54613Z" fill="#F6F6F6"/>
</svg>
