<svg width="100" height="100" viewBox="0 0 100 100" fill="none" xmlns="http://www.w3.org/2000/svg">
<path d="M79.8613 58.3036C77.8699 78.6614 63.3277 95.3352 42.9287 95.3352C19.0399 95.3352 6 78.7595 6 58.3036V33.4772L21.2582 48.2914C21.133 27.6158 31.5946 11.6756 53.8442 0L53.8676 28.4083L70.4795 15.3596C70.4795 15.3596 82.4043 32.2924 79.8613 58.3036Z" fill="#FF4A4A"/>
<path d="M53.8679 28.4083L53.8444 0C50.1087 1.94192 46.5206 4.15669 43.1089 6.62639V95.3352C63.4101 95.2372 77.874 78.5986 79.8615 58.3036C82.4045 32.2924 70.4719 15.3596 70.4719 15.3596L53.8679 28.4083Z" fill="#AF3244"/>
<path d="M64.8653 100C80.4572 100 93.0968 87.325 93.0968 71.6897C93.0968 56.0544 80.4572 43.3795 64.8653 43.3795C49.2735 43.3795 36.6338 56.0544 36.6338 71.6897C36.6338 87.325 49.2735 100 64.8653 100Z" fill="#FF9000"/>
<path d="M64.8653 100C57.3779 100 50.1971 97.0173 44.9026 91.7081C39.6082 86.3989 36.6338 79.198 36.6338 71.6897C36.6338 64.1814 39.6082 56.9805 44.9026 51.6713C50.1971 46.3621 57.3779 43.3795 64.8653 43.3795V100Z" fill="#FFD944"/>
<path d="M75.9254 72.8863L64.7087 84.1382L53.8089 73.208C52.7463 72.1425 52.1494 70.6974 52.1494 69.1906C52.1494 67.6838 52.7463 66.2387 53.8089 65.1732C54.8714 64.1077 56.3125 63.5091 57.8151 63.5091C59.3177 63.5091 60.7588 64.1077 61.8213 65.1732L64.7087 68.0686L67.9129 64.8554C68.9808 63.8189 70.4122 63.2448 71.8983 63.2567C73.3845 63.2687 74.8064 63.8659 75.8576 64.9195C76.9088 65.9731 77.505 67.3987 77.5176 68.889C77.5303 70.3793 76.9585 71.8149 75.9254 72.8863Z" fill="#AF3244"/>
<path d="M64.8652 67.9117L64.7087 68.0686L61.8213 65.1732C60.7588 64.1077 59.3177 63.5092 57.8151 63.5092C56.3125 63.5092 54.8714 64.1077 53.8089 65.1732C52.7463 66.2387 52.1494 67.6838 52.1494 69.1906C52.1494 70.6975 52.7463 72.1426 53.8089 73.2081L64.7087 84.1383L64.8652 83.9813V67.9117Z" fill="#FF4A4A"/>
</svg>
