<svg width="100" height="100" viewBox="0 0 100 100" fill="none" xmlns="http://www.w3.org/2000/svg">
<path d="M47.0596 0.0194092V12.1473V24.2751L48.5299 25.6985L50.0002 25.4886L51.9606 13.5707L50.0002 0.0194092H48.5299H47.0596Z" fill="#C6725A"/>
<path d="M52.9406 0H51.4703H50V13.5513V25.4886L51.4703 25.7709L52.9406 24.4582V12.2196V0Z" fill="#B45F4A"/>
<path d="M75.7387 0.0194092C66.4539 0.0194092 58.1853 4.45463 52.9404 11.3176L52.9408 24.4582L66.2063 25.6985L84.3184 34.7097C92.1544 30.1281 97.0499 21.7421 97.0499 12.468V0.0194092H75.7387Z" fill="#5BC980"/>
<path d="M50 25.4261C48.3108 24.7037 46.5813 24.075 44.8222 23.5443C43.0631 23.0136 41.2747 22.5808 39.4674 22.25L38.9859 22.162L38.5044 22.0738H38.3709H38.2374C23.6446 22.0738 11.772 33.9458 11.772 48.5392C11.772 52.0595 12.4505 56.0033 13.6791 59.967C14.8037 63.5959 15.7051 67.2411 17.6532 70.5938L33.3366 72.72L49.9998 70.6891L51.9602 48.0576L50 25.4261Z" fill="#FF5178"/>
<path d="M80.4676 29.8345C75.6754 25.0423 69.059 22.074 61.7624 22.074H61.6117H61.4611L61.0682 22.1556L60.6754 22.2369C58.883 22.608 57.1096 23.0717 55.3893 23.6157C53.6158 24.1765 51.8992 24.8231 50.2782 25.5424C50.2321 25.5224 50.1857 25.5031 50.1392 25.4839C50.0927 25.4647 50.0461 25.4459 50 25.4261V48.0574V70.6889L67.0555 72.7199L82.3467 70.5936C84.3267 67.2215 85.1442 63.7342 86.2881 60.0715C89.8044 48.8151 88.7735 38.1403 80.4676 29.8345Z" fill="#CB2E81"/>
<path d="M0.00976562 70.594V100H50L51.9605 85.297L50 70.594H46.9614L44.1188 72.5544L41.1782 70.594H35.297L32.3564 72.5544L29.4158 70.594C27.6291 70.594 25.2839 70.594 23.5346 70.594L20.594 72.5544L17.6534 70.594H0.00976562Z" fill="#FFC178"/>
<path d="M99.9903 70.594H82.3467L79.4061 72.5544L76.4655 70.594C74.716 70.594 72.3702 70.594 70.5842 70.594L67.6436 72.5544L64.703 70.594H58.8218L55.8812 72.5544L52.9406 70.594H50V100H99.9903C99.9903 98.0145 99.9903 72.5797 99.9903 70.594Z" fill="#FF936B"/>
<path d="M76.4653 85.297H82.3465C82.3465 78.4485 82.3465 76.9457 82.3465 70.594C80.2897 70.594 78.5222 70.594 76.4653 70.594V85.297Z" fill="#F4684D"/>
<path d="M64.7031 82.3564H70.5844C70.5844 80.9334 70.5844 72.0267 70.5844 70.594C68.5275 70.594 66.76 70.594 64.7031 70.594V82.3564Z" fill="#F4684D"/>
<path d="M52.9404 85.297H58.8216C58.8216 78.4485 58.8216 76.9457 58.8216 70.594C56.7648 70.594 54.9973 70.594 52.9404 70.594V85.297Z" fill="#F4684D"/>
<path d="M47.0594 82.3564C45.0026 82.3564 43.2351 82.3564 41.1782 82.3564C41.1782 80.9334 41.1782 72.0267 41.1782 70.594H47.0594V82.3564Z" fill="#FF936B"/>
<path d="M35.2967 85.297C33.2399 85.297 31.4724 85.297 29.4155 85.297C29.4155 78.4485 29.4155 76.9457 29.4155 70.594H35.2967V85.297Z" fill="#FF936B"/>
<path d="M23.5345 82.3564C21.4777 82.3564 19.7102 82.3564 17.6533 82.3564C17.6533 80.9334 17.6533 72.0267 17.6533 70.594H23.5345V82.3564Z" fill="#FF936B"/>
</svg>
