<svg width="100" height="100" viewBox="0 0 100 100" fill="none" xmlns="http://www.w3.org/2000/svg">
<path d="M81.3803 0H18.6197C8.35273 0 0 8.35293 0 18.6199V81.3801C0 91.6471 8.35273 100 18.6197 100H81.3803C91.6473 100 100 91.6471 100 81.3801V18.6199C100 8.35293 91.6473 0 81.3803 0Z" fill="#61DE56"/>
<path d="M81.3803 0H50V100H81.3803C91.6473 100 100 91.6471 100 81.3801V18.6199C100 8.35293 91.6473 0 81.3803 0Z" fill="#13C37B"/>
<path d="M78.2422 29.3945H21.7578C20.1398 29.3945 18.8281 28.0828 18.8281 26.4648C18.8281 24.8469 20.1398 23.5352 21.7578 23.5352H78.2422C79.8602 23.5352 81.1719 24.8469 81.1719 26.4648C81.1719 28.0828 79.8602 29.3945 78.2422 29.3945Z" fill="#F2F2F2"/>
<path d="M78.2422 52.9297H21.7578C20.1398 52.9297 18.8281 51.618 18.8281 50C18.8281 48.382 20.1398 47.0703 21.7578 47.0703H78.2422C79.8602 47.0703 81.1719 48.382 81.1719 50C81.1719 51.618 79.8602 52.9297 78.2422 52.9297Z" fill="#F2F2F2"/>
<path d="M78.2422 76.4648H21.7578C20.1398 76.4648 18.8281 75.1531 18.8281 73.5352C18.8281 71.9172 20.1398 70.6055 21.7578 70.6055H78.2422C79.8602 70.6055 81.1719 71.9172 81.1719 73.5352C81.1719 75.1531 79.8602 76.4648 78.2422 76.4648Z" fill="#F2F2F2"/>
<path d="M81.1719 26.4648C81.1719 24.8469 79.8602 23.5352 78.2422 23.5352H50V29.3945H78.2422C79.8602 29.3945 81.1719 28.0828 81.1719 26.4648Z" fill="#D9D9D9"/>
<path d="M81.1719 50C81.1719 48.382 79.8602 47.0703 78.2422 47.0703H50V52.9297H78.2422C79.8602 52.9297 81.1719 51.618 81.1719 50Z" fill="#D9D9D9"/>
<path d="M78.2422 76.4648C79.8602 76.4648 81.1719 75.1531 81.1719 73.5352C81.1719 71.9172 79.8602 70.6055 78.2422 70.6055H50V76.4648H78.2422Z" fill="#D9D9D9"/>
</svg>
