<svg width="32" height="32" viewBox="0 0 32 32" fill="none" xmlns="http://www.w3.org/2000/svg">
<path fill-rule="evenodd" clip-rule="evenodd" d="M16 0C24.8366 0 32 7.16344 32 16C32 24.8366 24.8366 32 16 32C7.16344 32 0 24.8366 0 16C0 7.16344 7.16344 0 16 0ZM16.9583 6.51743C18.0462 6.65321 18.9254 6.91527 19.89 7.38578C20.8387 7.85 21.4459 8.28891 22.2493 9.08781C23.002 9.84253 23.4194 10.4141 23.8622 11.3015C24.4789 12.5393 24.8299 14.0108 24.89 15.6308C24.9122 16.1834 24.8963 16.3066 24.7698 16.4644C24.5295 16.7708 24.0013 16.7202 23.8211 16.376C23.7641 16.2623 23.7483 16.1645 23.7293 15.7224C23.6977 15.0434 23.6503 14.6045 23.5554 14.0803C23.1822 12.0246 22.1955 10.3825 20.6205 9.20466C19.308 8.21945 17.9513 7.73945 16.174 7.63525C15.5731 7.60052 15.4687 7.57845 15.3327 7.47423C15.0796 7.27528 15.0671 6.80795 15.3105 6.59007C15.4592 6.45426 15.5635 6.43531 16.0791 6.4511C16.3479 6.46056 16.7432 6.49216 16.9583 6.51743ZM9.72863 6.85847C9.83934 6.89635 10.0101 6.98476 10.1082 7.04793C10.709 7.44582 12.382 9.5836 12.9292 10.651C13.2422 11.2604 13.3466 11.712 13.2486 12.0467C13.1474 12.4067 12.9798 12.5961 12.2302 13.1993C11.9298 13.4424 11.6483 13.6919 11.604 13.7582C11.4902 13.9224 11.3984 14.2445 11.3984 14.4719C11.4016 14.9992 11.7432 15.956 12.1923 16.6918C12.5401 17.2634 13.1631 17.9959 13.7799 18.5581C14.5041 19.2212 15.1429 19.6727 15.864 20.0296C16.7906 20.4906 17.3568 20.6074 17.7711 20.4149C17.8754 20.3675 17.9861 20.3043 18.0209 20.2759C18.0525 20.2475 18.296 19.9506 18.5617 19.6223C19.074 18.978 19.1911 18.8739 19.5421 18.7539C19.9881 18.6023 20.4435 18.6433 20.902 18.877C21.2499 19.057 22.0089 19.5275 22.4991 19.8685C23.1442 20.3201 24.5231 21.4443 24.7098 21.6685C25.0386 22.0727 25.0956 22.5905 24.8742 23.1621C24.6401 23.7652 23.7293 24.8958 23.0936 25.3789C22.5181 25.8147 22.1101 25.982 21.5725 26.0073C21.1297 26.0294 20.9463 25.9915 20.3802 25.7578C15.9399 23.9294 12.3947 21.2012 9.57997 17.4528C8.1094 15.495 6.98983 13.4646 6.22446 11.3583C5.77857 10.13 5.75646 9.59624 6.12327 8.96785C6.28143 8.70261 6.95505 8.04579 7.44524 7.6795C8.26121 7.07318 8.63754 6.84897 8.93799 6.78583C9.14355 6.74161 9.5009 6.77636 9.72863 6.85847ZM17.1765 8.80679C19.0962 9.08781 20.5826 9.97836 21.5566 11.4246C22.1038 12.2393 22.4453 13.1961 22.5624 14.2224C22.6034 14.5982 22.6034 15.2834 22.5592 15.3971C22.518 15.5045 22.3852 15.6497 22.2714 15.7097C22.1481 15.7729 21.8856 15.7666 21.7401 15.6908C21.4965 15.5676 21.4238 15.3718 21.4238 14.8413C21.4238 14.0235 21.2119 13.1614 20.8451 12.4919C20.4276 11.7277 19.8204 11.0962 19.0804 10.6573C18.4447 10.2783 17.5054 9.99731 16.6484 9.92785C16.3384 9.90256 16.1676 9.83939 16.0506 9.70361C15.8704 9.49834 15.8514 9.22047 16.0032 8.98997C16.1676 8.73418 16.4206 8.6931 17.1765 8.80679ZM17.8501 11.1909C18.4731 11.3236 18.9507 11.5604 19.3587 11.9425C19.8836 12.4382 20.1715 13.0382 20.2979 13.9003C20.3833 14.4624 20.3486 14.6834 20.1493 14.8666C19.9627 15.0371 19.618 15.0434 19.4093 14.8824C19.2575 14.7687 19.21 14.6487 19.1752 14.3235C19.1341 13.8908 19.0582 13.5877 18.9286 13.3066C18.6503 12.7098 18.16 12.4004 17.3315 12.2993C16.9424 12.2519 16.8254 12.2077 16.699 12.0593C16.4681 11.7846 16.5566 11.3394 16.876 11.1751C16.9962 11.1151 17.0469 11.1088 17.3125 11.1246C17.4769 11.1341 17.7205 11.1625 17.8501 11.1909Z" fill="#F6F6F6"/>
</svg>
