<svg width="20" height="20" viewBox="0 0 20 20" fill="none" xmlns="http://www.w3.org/2000/svg">
<circle cx="10" cy="10" r="10" fill="#7AB826"/>
<g clip-path="url(#clip0)">
<path d="M13.3369 3.33325C13.3369 3.33325 12.2399 4.39757 11.0535 4.82666C2.26762 8.00454 5.97299 14.1973 6.09387 14.2177C6.09387 14.2177 6.58654 13.3598 7.25206 12.8704C11.4752 9.76583 12.3335 6.19228 12.3335 6.19228C12.3335 6.19228 11.3858 10.4924 7.62875 13.1681C6.79895 13.7587 6.23707 15.213 5.99922 16.6666C5.99922 16.6666 6.58743 16.4289 6.84037 16.3646C6.93901 15.7209 7.14522 15.1046 7.49387 14.554C12.7449 15.1792 14.4647 10.948 14.6893 9.47263C15.2196 5.98811 13.3369 3.33325 13.3369 3.33325Z" fill="#010101"/>
</g>
<defs>
<clipPath id="clip0">
<rect width="13.3333" height="13.3333" fill="white" transform="translate(3.3335 3.33325)"/>
</clipPath>
</defs>
</svg>
